<svg width="30" height="30" viewBox="0 0 30 30" fill="none" xmlns="http://www.w3.org/2000/svg">
<path d="M18.9206 10.1898C17.83 9.13694 16.4429 8.60086 14.898 8.60086C12.1572 8.60086 9.83738 10.4699 9.00989 12.9813C8.79943 13.6188 8.67985 14.2997 8.67985 15C8.67985 15.7003 8.79942 16.3812 9.00987 17.0187C9.83736 19.5301 12.1572 21.3991 14.898 21.3991C16.3138 21.3991 17.5191 21.0224 18.4614 20.3849C19.5759 19.6315 20.3173 18.5063 20.5612 17.1782H14.898V13.0682H24.8087C24.933 13.7637 25 14.4881 25 15.2415C25 18.4773 23.852 21.2012 21.8622 23.0509C20.1212 24.6736 17.7391 25.625 14.898 25.625C10.7845 25.625 7.22579 23.244 5.49428 19.7716C4.78159 18.3372 4.375 16.7145 4.375 15C4.375 13.2855 4.78157 11.6628 5.49426 10.2284C7.22577 6.75599 10.7844 4.375 14.898 4.375C17.7344 4.375 20.1164 5.42784 21.9388 7.14233L18.9206 10.1898Z" fill="black"/>
</svg>
