<svg width="30" height="30" viewBox="0 0 30 30" fill="none" xmlns="http://www.w3.org/2000/svg">
<path d="M25.6864 19.7997C25.5368 19.3927 25.2519 19.1749 24.9274 18.9945C24.8664 18.9587 24.8103 18.9301 24.7624 18.9081C24.6656 18.8581 24.5666 18.8097 24.4682 18.7585C23.4567 18.2223 22.6669 17.5458 22.1191 16.7439C21.9636 16.5181 21.8286 16.2788 21.716 16.0289C21.6692 15.8952 21.6714 15.8193 21.705 15.75C21.7383 15.6966 21.7823 15.6507 21.8342 15.6153C22.008 15.5003 22.1873 15.3837 22.3089 15.3051C22.5256 15.1648 22.6972 15.0537 22.8077 14.9751C23.223 14.6847 23.5134 14.3761 23.6949 14.0313C23.8215 13.793 23.8954 13.5303 23.9114 13.2609C23.9274 12.9916 23.8853 12.722 23.7878 12.4704C23.5128 11.7466 22.8292 11.2972 22.0009 11.2972C21.8262 11.2971 21.6519 11.3155 21.4811 11.3522C21.4355 11.3621 21.3898 11.3726 21.3453 11.3841C21.353 10.8891 21.342 10.3666 21.298 9.85237C21.1418 8.04452 20.5087 7.09687 19.8487 6.34117C19.4261 5.86761 18.9283 5.46698 18.3753 5.15537C17.3737 4.58337 16.238 4.29297 14.9999 4.29297C13.7619 4.29297 12.6316 4.58337 11.629 5.15537C11.0747 5.46707 10.5758 5.86851 10.1528 6.34337C9.49279 7.09907 8.85974 8.04837 8.70354 9.85457C8.65954 10.3688 8.64854 10.8941 8.65569 11.3863C8.61114 11.3748 8.56604 11.3643 8.52039 11.3544C8.34958 11.3177 8.17535 11.2993 8.00064 11.2994C7.17179 11.2994 6.48704 11.7488 6.21314 12.4726C6.11523 12.7243 6.07267 12.9941 6.08833 13.2637C6.10398 13.5333 6.1775 13.7964 6.30389 14.0351C6.48594 14.38 6.77634 14.6885 7.19159 14.9789C7.30159 15.0559 7.47374 15.167 7.69044 15.3089C7.80759 15.3848 7.97864 15.4959 8.14639 15.607C8.20508 15.645 8.25496 15.695 8.29269 15.7539C8.32789 15.8259 8.32899 15.9035 8.27674 16.0465C8.1656 16.2912 8.0329 16.5255 7.88019 16.7466C7.34449 17.5304 6.57779 18.1948 5.59879 18.7266C5.08014 19.0016 4.54114 19.1853 4.31344 19.8041C4.14184 20.271 4.25404 20.8023 4.69019 21.25C4.85026 21.4171 5.03592 21.5577 5.24019 21.6664C5.66522 21.9 6.11718 22.0808 6.58604 22.2048C6.68279 22.2298 6.77465 22.2709 6.85774 22.3264C7.01669 22.4655 6.99414 22.6751 7.20589 22.982C7.31218 23.1406 7.44724 23.2779 7.60409 23.3868C8.04849 23.6937 8.54789 23.7129 9.07699 23.7333C9.55494 23.7514 10.0967 23.7723 10.7154 23.9764C10.9717 24.0611 11.2379 24.225 11.5465 24.4164C12.2873 24.8718 13.3015 25.4949 14.9988 25.4949C16.6961 25.4949 17.7175 24.8685 18.4638 24.4114C18.7702 24.2233 19.0347 24.0611 19.2839 23.9786C19.9026 23.774 20.4444 23.7536 20.9223 23.7355C21.4514 23.7151 21.9508 23.6959 22.3952 23.389C22.581 23.2594 22.7358 23.0904 22.8484 22.894C23.0008 22.6349 22.9969 22.454 23.1399 22.3275C23.2179 22.2746 23.3042 22.2352 23.3951 22.2109C23.8704 22.0864 24.3285 21.9039 24.7591 21.6675C24.9762 21.551 25.1715 21.3981 25.3366 21.2154L25.3421 21.2088C25.7513 20.771 25.8542 20.2551 25.6864 19.7997ZM24.1778 20.6104C23.2576 21.1186 22.646 21.0641 22.1703 21.3705C21.766 21.6306 22.0053 22.1916 21.7116 22.394C21.3508 22.6432 20.2843 22.3764 18.9066 22.8313C17.7703 23.2069 17.0454 24.2871 15.0016 24.2871C12.9578 24.2871 12.2499 23.2091 11.0949 22.8285C9.71994 22.3737 8.65129 22.6404 8.28994 22.3913C7.99679 22.1889 8.23494 21.6279 7.83124 21.3677C7.35494 21.0614 6.74334 21.1158 5.82374 20.6104C5.23799 20.287 5.57019 20.0868 5.76544 19.9922C9.09844 18.3785 9.63029 15.887 9.65394 15.7022C9.68254 15.4783 9.71444 15.3023 9.46804 15.0746C9.22989 14.8546 8.17334 14.2007 7.88019 13.9961C7.39509 13.6573 7.18169 13.319 7.33899 12.9032C7.44899 12.6156 7.71739 12.5072 7.99899 12.5072C8.08799 12.5075 8.17669 12.5175 8.26354 12.5369C8.79594 12.6524 9.31294 12.9192 9.61159 12.9912C9.64755 13.0004 9.68447 13.0054 9.72159 13.0061C9.88109 13.0061 9.93719 12.9258 9.92619 12.7432C9.89209 12.1607 9.80959 11.0255 9.90144 9.96457C10.0274 8.50487 10.4976 7.78162 11.0564 7.14197C11.3248 6.83452 12.586 5.50187 14.9977 5.50187C17.4095 5.50187 18.6739 6.82902 18.9423 7.13537C19.5017 7.77502 19.9725 8.49827 20.0973 9.95797C20.1892 11.0189 20.11 12.1547 20.0726 12.7366C20.0599 12.9285 20.1177 12.9995 20.2772 12.9995C20.3143 12.9989 20.3512 12.9939 20.3872 12.9846C20.6864 12.9126 21.2034 12.6458 21.7358 12.5303C21.8226 12.5108 21.9113 12.5009 22.0003 12.5006C22.2836 12.5006 22.5503 12.6106 22.6603 12.8966C22.8176 13.3124 22.6053 13.6507 22.1197 13.9895C21.8265 14.1941 20.77 14.8475 20.5318 15.068C20.2849 15.2957 20.3173 15.4717 20.3459 15.6956C20.3696 15.8831 20.9009 18.3746 24.2344 19.9856C24.4313 20.084 24.7635 20.2842 24.1778 20.6104Z" fill="black"/>
</svg>
