<svg width="30" height="30" viewBox="0 0 30 30" fill="none" xmlns="http://www.w3.org/2000/svg">
<path fill-rule="evenodd" clip-rule="evenodd" d="M24.7147 10.1105C24.7231 10.3292 24.726 10.5477 24.726 10.7663C24.726 17.394 20.0637 25.0454 11.5379 25.0454C8.91896 25.0454 6.48371 24.2107 4.43188 22.7897C4.79458 22.8295 5.16293 22.8594 5.53694 22.8594C7.70841 22.8594 9.70842 22.0543 11.2949 20.7029C9.26659 20.6731 7.55392 19.2124 6.96324 17.2251C7.2468 17.2847 7.53882 17.3146 7.83746 17.3146C8.25856 17.3146 8.66742 17.2551 9.05932 17.1358C6.93684 16.6787 5.33816 14.6517 5.33816 12.2172C5.33816 12.1874 5.33816 12.1774 5.33816 12.1576C5.9637 12.5252 6.67966 12.7536 7.43991 12.7835C6.19449 11.8792 5.37582 10.3391 5.37582 8.60015C5.37582 7.68598 5.6038 6.82145 6.00513 6.0762C8.29059 9.11682 11.7075 11.1141 15.5596 11.3228C15.4805 10.9551 15.44 10.5677 15.44 10.1802C15.44 7.40784 17.5153 5.16211 20.0759 5.16211C21.4089 5.16211 22.6129 5.76833 23.4579 6.74213C24.5159 6.52352 25.5069 6.10621 26.4038 5.52988C26.0562 6.70241 25.3223 7.68593 24.3632 8.30201C25.3015 8.18277 26.1965 7.91468 27.0265 7.51721C26.4038 8.52082 25.62 9.40504 24.7147 10.1105Z" fill="black"/>
</svg>
